<?xml version="1.0" encoding="utf-8"?>
<!-- Generator: Adobe Illustrator 17.0.0, SVG Export Plug-In . SVG Version: 6.00 Build 0)  -->
<!DOCTYPE svg PUBLIC "-//W3C//DTD SVG 1.1//EN" "http://www.w3.org/Graphics/SVG/1.1/DTD/svg11.dtd">
<svg version="1.1" xmlns="http://www.w3.org/2000/svg" xmlns:xlink="http://www.w3.org/1999/xlink" x="0px" y="0px"
	 width="199.801px" height="173.28px" viewBox="0 0 199.801 173.28" enable-background="new 0 0 199.801 173.28"
	 xml:space="preserve">
<g id="Layer_1">
	<g>
		<path fill="#BE1E2D" d="M178.627,122.657c3.73-0.96,7.01-2.4,9.86-4.34c5.62-3.83,8.44-9.28,8.44-16.35v-78.48
			c0-7.54-2.5-13.34-7.49-17.4c-4.98-4.06-12.58-6.09-22.79-6.09c-11.14,0-19.2,2.15-24.19,6.44c-4.41,3.71-6.61,9.46-6.61,17.23
			v78.47c0,7.19,2.84,12.65,8.53,16.36c2.83,1.84,6.08,3.24,9.75,4.16h-21.94c-1.85-1.4-3.18-5.51-3.99-12.36
			c-0.23-2.21-0.47-5.46-0.7-9.76v-26.31c0-4.3-0.8-7.66-2.42-10.11c-2.53-3.71-7.2-6.44-14-8.18c7.38-2.43,12.22-5.66,14.52-9.7
			c1.27-2.19,1.9-5.31,1.9-9.35v-14.55c0-6.46-2.46-11.65-7.39-15.58c-4.93-3.92-11.81-5.89-20.62-5.89h-33.06v121.79h-40.37v-44.88
			c12.12,0.23,19.26-0.03,21.42-0.78c2.16-0.76,4.99-2.55,8.48-5.4c3.5-2.84,5.25-7.97,5.25-15.39v-33.76
			c0-9.86-3.83-16.24-11.48-19.14c-4.18-1.62-12.01-2.44-23.49-2.44h-26.1v121.79h-0.14v50.62h199.8v-50.62H178.627z M26.057,18.097
			c2.77,0,4.76,0.23,5.97,0.7c2.17,0.94,3.25,2.87,3.25,5.79v29.47c0,3.04-1.14,5.03-3.43,5.97c-0.85,0.35-2.78,0.52-5.79,0.52
			V18.097z M93.047,16.357c2.66,0,4.75,0.32,6.26,0.95c1.51,0.64,2.27,2.45,2.27,5.45v19.91c0,3-1.03,4.96-3.09,5.88
			c-0.84,0.35-2.66,0.52-5.44,0.52V16.357z M54.517,134.007h-7.02v9.83h6.29v4.47h-6.29v17.47h-7.96v-36.4h14.98V134.007z
			 M63.767,165.777h-7.95v-36.4h7.95V165.777z M81.967,134.057h-4.47v31.72h-7.96v-31.72h-4.47v-4.68h16.9V134.057z
			 M103.807,165.777h-8.21l-5.46-19.41v19.41h-6.66v-36.4h9.1l4.58,16.61v-16.61h6.65V165.777z M93.047,122.657v-58.63
			c2.66,0,4.75,0.33,6.26,0.96c1.51,0.64,2.27,2.47,2.27,5.48v29.93c0,6.26,0.29,11.11,0.87,14.53c0.58,3.41,1.62,5.99,3.12,7.73
			H93.047z M121.227,165.777h-15.65v-36.4h15.55v4.63h-7.59v9.83h6.86v4.47h-6.86v12.84h7.69V165.777z M140.727,158.917
			c0,2.39-0.62,4.16-1.87,5.3c-1.46,1.32-3.92,1.98-7.39,1.98c-3.29,0-5.7-0.78-7.22-2.34c-1.15-1.15-1.72-2.57-1.72-4.27v-8.32
			h7.23v8.42c0,0.38,0.15,0.69,0.46,0.92c0.3,0.22,0.67,0.34,1.1,0.34c0.5,0,0.88-0.11,1.13-0.32s0.38-0.52,0.38-0.94v-4.33
			c0-1.01-0.23-1.81-0.68-2.4c-1.22-1.26-2.53-2.63-3.92-4.13c-2.3-2.43-3.59-3.81-3.87-4.16c-1.22-1.56-1.83-3.02-1.83-4.37v-4.11
			c0-2.32,0.66-4.03,1.98-5.14c1.52-1.29,3.95-1.93,7.28-1.93c2.87,0,5.02,0.64,6.44,1.93c1.22,1.11,1.82,2.61,1.82,4.52v6.29h-7.22
			v-6.75c0-0.35-0.12-0.62-0.36-0.81c-0.23-0.19-0.53-0.29-0.89-0.29c-0.43,0-0.76,0.09-0.98,0.26c-0.21,0.18-0.32,0.46-0.32,0.84
			v3.4c0,1.19,0.52,2.34,1.57,3.46c1.46,1.49,2.84,2.89,4.13,4.21c1.67,1.73,2.75,2.94,3.24,3.64c1.01,1.42,1.51,2.91,1.51,4.47
			V158.917z M160.647,158.917c0,2.39-0.63,4.16-1.88,5.3c-1.45,1.32-3.91,1.98-7.38,1.98c-3.29,0-5.7-0.78-7.23-2.34
			c-1.14-1.15-1.71-2.57-1.71-4.27v-8.32h7.22v8.42c0,0.38,0.16,0.69,0.46,0.92c0.31,0.22,0.67,0.34,1.1,0.34
			c0.51,0,0.88-0.11,1.14-0.32c0.25-0.21,0.37-0.52,0.37-0.94v-4.33c0-1.01-0.22-1.81-0.68-2.4c-1.22-1.26-2.52-2.63-3.92-4.13
			c-2.3-2.43-3.59-3.81-3.86-4.16c-1.22-1.56-1.83-3.02-1.83-4.37v-4.11c0-2.32,0.65-4.03,1.97-5.14c1.53-1.29,3.95-1.93,7.28-1.93
			c2.88,0,5.03,0.64,6.45,1.93c1.21,1.11,1.82,2.61,1.82,4.52v6.29h-7.23v-6.75c0-0.35-0.12-0.62-0.35-0.81
			c-0.24-0.19-0.53-0.29-0.89-0.29c-0.44,0-0.76,0.09-0.98,0.26c-0.22,0.18-0.33,0.46-0.33,0.84v3.4c0,1.19,0.53,2.34,1.57,3.46
			c1.47,1.49,2.84,2.89,4.13,4.21c1.67,1.73,2.75,2.94,3.24,3.64c1.01,1.42,1.52,2.91,1.52,4.47V158.917z M170.997,103.517
			c0,1.16-0.36,2.07-1.08,2.71c-0.73,0.64-1.87,0.96-3.44,0.96s-2.74-0.32-3.53-0.96c-0.78-0.64-1.17-1.55-1.17-2.71v-83.32
			c0-1.28,0.39-2.21,1.17-2.79c0.79-0.59,1.96-0.88,3.53-0.88s2.71,0.29,3.44,0.88c0.72,0.58,1.08,1.51,1.08,2.79V103.517z"/>
	</g>
</g>
<g id="Layer_2">
</g>
</svg>
